
<svg xmlns="http://www.w3.org/2000/svg" version="1.1" xmlns:xlink="http://www.w3.org/1999/xlink" preserveAspectRatio="none" x="0px" y="0px" width="749px" height="169px" viewBox="0 0 749 169">
<defs/>

<g id="shikoshib_logo_2021_without_light_svg">
<g transform="matrix( 1, 0, 0, 1, -165.45,-455.55) ">
<g>
<g>
<path fill="#E3D9D9" stroke="none" d="
M 174.25 600.5
L 174.35 600.8 174.55 600.8 174.25 600.5
M 268.5 458.9
Q 267.2 459.95 266.2 460.5
L 262.15 462.85
Q 259.8 464.35 257.95 465.35
L 254.2 467.55
Q 252.05 468.9 250.3 469.75
L 248.65 470.65
Q 246.15 472.05 242.8 473.7 239.85 475.15 237.25 477.4
L 236.95 477.4 236.95 476.95 236.35 477.55
Q 235.95 477.75 235.75 477.95
L 235.7 477.95 231.1 480.6
Q 229.9 480.9 228.85 481.65
L 227.05 483 226.3 483.4
Q 226 483.55 225.55 483.55 225.1 484 224.5 484.15 223.75 484.45 223.75 485.05
L 223.45 485 223.45 485.05
Q 221.85 485.4 220.45 486.35 218.8 487.35 217.65 488.35
L 217.6 487.95
Q 216.65 488.75 215.8 489.1
L 213.25 490.6
Q 212.8 491.05 212.95 491.65
L 212.65 491.65
Q 211.3 491.65 210.4 492.55
L 208.75 493.95 208.6 493.95 208.55 494 208.45 493.95 207.85 493.95 206.8 494.7
Q 206.35 495.15 206.65 495.75 205.9 495.9 205.3 495.9 204.55 495.75 204.1 496.3 203.95 496.55 203.65 496.8 203.5 496.8 203.2 497.1
L 202.9 497.1
Q 203.5 497.2 203.5 497.5
L 202.9 497.95 203.2 497.95 202.15 498.95 202.15 498.65
Q 201.25 499.4 200.2 499.55 199.15 499.55 197.95 500.15 194.05 502.8 189.85 505.4
L 177.7 513.05
Q 177.25 513.5 176.8 513.5 176.35 513.35 175.75 512.75 175.3 512.3 174.7 512.9 174.1 513.5 173.95 514.25 174.35 515.6 174.7 517.15 175 518.55 175.45 519.95 176.95 523.55 179.2 526.6 181.45 529.55 184.45 532
L 186.05 532.7
Q 187.15 532.9 187.75 532.9 191.8 532.9 195.85 532.45 199.75 532 203.65 531.7 205.75 531.7 207.7 531.4 209.65 531.1 211.45 531.1 214.9 531.1 218.5 530.95 221.85 530.95 225.55 530.55 228.25 530.05 231.1 530.05
L 236.95 530.55
Q 237.25 530.35 237.7 530.55 238.2 530.55 238.45 531.1 238.45 531.7 238.15 531.85
L 237.55 532.3
Q 235.55 533.4 233.2 535.2 231.05 537 229.6 538.6 229 539.35 227.95 540.2 226.9 540.95 225.55 540.65 225.1 540.65 224.5 540.95 224.1 541.1 223.75 541.5 222.65 543.2 221.35 544.15 219.9 545.15 218.8 546.65 217.95 548.05 216.4 549 214.9 550.05 212.95 550.35
L 212.35 550.65
Q 212.05 550.8 212.05 550.9 211.75 552.25 210.85 552.85 209.9 553.5 209.05 553.55 206.1 554.75 203.5 556.8 201.5 558.5 198.85 561.05 198.85 561.95 198.35 562.1
L 197.35 562.35
Q 196.9 562.5 196.45 563.1 196.1 563.6 195.5 563.8 194.95 563.8 194.95 564.6 195.1 565.3 194.5 565.6 192.6 566.2 191.05 567.5 189.5 568.9 187.75 569.55 187.45 569.55 187.15 569.85 187 570.15 187.3 570.3
L 188.2 570.3
Q 188.5 570.6 188.65 570.6 188.8 570.7 188.8 570.6 188.95 571 188.8 571.2
L 188.2 571.6
Q 187.8 571.8 187.6 571.8
L 187 571.9
Q 185.8 572.05 184.6 572.5 183.35 572.95 182.65 573.95 181.9 574.85 181.15 575.15 180.55 575.45 179.35 575.75
L 179.2 575.75
Q 179.5 576.6 179.05 576.75 178.6 577.05 178 576.9
L 178 577.05 177.1 577.9 176.5 577.9
Q 174.25 579.15 172.6 580.7
L 169.3 583.95
Q 169 584.55 168.35 584.55 167.75 584.7 166.9 584.25 166.15 584.1 165.85 584.55 165.4 585.1 165.7 585.85 166.6 587.7 167.05 589.55
L 168.35 593.3 169.9 596
Q 170.7 597.25 171.85 598.15
L 174.25 600.5 178.6 603.75
Q 179.05 603.9 179.35 603.75 179.7 603.75 180.05 603.45
L 184.6 597.75
Q 186.65 595.1 188.65 593.3
L 192.7 589.85
Q 194.75 588.1 196.15 585.85 196.3 585.55 196.6 585.55
L 197.05 585.25
Q 198.2 584.95 199 584.25 200.05 583.5 200.65 582.45
L 207.55 576.15
Q 208.25 575.45 209.65 574.4 212.25 572.6 214.3 571.3 216.2 570.1 218.8 568.1
L 221.2 566.35
Q 222.4 565.45 223.15 564.1
L 224.05 563.1
Q 224.35 562.8 225.1 562.65 226.85 562.2 228.25 561.05 229.65 559.95 230.65 558.4 231.1 557.5 231.85 557.5 232.6 557.5 233.35 557.2 234.1 556.85 234.25 555.9 234.4 555.2 235.15 555.05
L 235.45 554.75
Q 236.35 554.75 237.1 554.3 237.85 554 238.45 553.55 241.85 551.1 244.6 549.45
L 263.2 537.45
Q 264.7 536.4 265.9 535.35 267.5 534.15 269.05 533.45 270.6 532.75 272.05 531.7
L 275.8 529.05
Q 276.25 528.75 276.4 528.2 276.55 527.6 276.4 526.85 276.1 525.6 275.95 524.5 275.8 523.25 275.5 522 271.35 515.3 264.4 511.3 263.5 510.7 262.75 510.85 261.95 510.85 261.05 511.45 261.5 511.25 261.85 511.6
L 261.85 511.9
Q 261.7 511.9 261.55 511.7
L 261.25 511.6
Q 259.85 512.55 258.4 512.6
L 255.4 513.05 225.55 513.95
Q 222.85 514.1 220.3 514.1 217.6 513.95 214.9 513.95 214.3 513.95 214.15 513.65 214 513.35 214.3 512.5
L 214.1 512.4
Q 215 511.95 215.65 511.9 216.4 511.75 216.7 510.7
L 216.7 509.7
Q 217 509.4 217.45 509.25
L 218.4 508.85 219.1 507.95
Q 219.35 507.55 220.15 507.05
L 222.7 506.15 224.7 505.1
Q 225.25 504.35 225.85 504
L 227.35 503.4 227.05 503.4
Q 227.35 502.8 227.95 502.8
L 229 502.5 229 502.8
Q 229.75 501.4 230.5 501.05 231.2 500.75 232.3 500.75
L 232.75 500.45 232.9 500.15
Q 233.65 499.7 234.25 499.85 234.7 500 235.45 499.85 236.05 499.55 235.9 498.95 235.75 498.55 236.05 497.95
L 236.35 497.65
Q 236.5 497.65 236.65 497.35 237.55 496.9 238.45 496.6 239.25 496.2 240.4 496.2
L 241.3 495
Q 241.45 494.7 241.6 494.7
L 241.9 494.7
Q 242.2 494.4 242.35 494.4
L 242.8 494.4 242.8 495.6
Q 244.15 495.15 245.5 494.25 246.75 493.65 248.05 492.65
L 248.3 492.3
Q 248.8 491.9 249.4 491.75 250.05 491.7 250.9 491.35 251.35 491.2 251.65 490.75 251.95 490.3 251.8 489.6
L 251.5 489.6 251.5 489.3 251.8 489
Q 252.7 488.4 253.45 488.1 254.35 487.65 255.4 488.1 256.3 488.25 256.75 487.8
L 258.85 486.8
Q 259.3 486.5 258.85 485.65 258.85 485.35 259.45 485.05 260.05 484.75 260.35 485.05 260.95 485.9 261.4 485.65 262 485.35 262.3 485.05 262.75 484.15 263.5 484
L 265 483.55
Q 266.2 483.1 267.7 482.25 269.05 481.65 270.25 480.6 270.4 480.2 270.7 479.9 271 479.75 271.45 479.75 272.8 479.45 274 478.55 274.8 477.95 276.4 476.95 279.55 475.3 280.5 473 281.35 470.75 280.3 467.4 280.15 466.75 279.85 466.2
L 279.4 465.05
Q 278.1 462.35 275.95 460.2 274 458.2 271.45 455.95 270.7 455.6 270.4 455.65 270.1 455.95 269.95 456.55 269.45 457.7 268.5 458.9
M 226 498.55
L 226.05 498.6 226 498.85 225.75 498.9 225.7 498.85 225.7 498.65 226 498.55
M 213.7 506.45
L 213.4 506.15 213.7 506.15 213.7 506.45
M 208.45 509.4
L 208 509.4
Q 208.3 509.1 208.6 509.1 208.6 509.4 208.45 509.4
M 209.8 512.5
Q 209.8 512.2 209.65 512.5 209.35 512.6 209.35 512.5
L 209.35 512.2 209.8 512.2
Q 209.95 512.2 209.95 512.5 209.95 512.6 209.8 512.5
M 185.2 576.3
L 185.35 576.15 185.8 576.15
Q 185.95 576.3 185.65 576.45 185.65 576.75 185.5 576.75
L 185.05 576.75 185.2 576.3
M 192.25 581.3
L 192.35 581.6 191.8 581.6
Q 192.1 581.45 192.1 581.3
L 192.25 581.3
M 236.2 547.85
Q 236.35 548 236.35 548.3 236.35 549.2 235.45 549.2 235.05 548.8 234.85 548.7
L 234.55 548.3
Q 234.55 547.85 235 547.7 235.45 547.55 235.75 547.7 236.05 547.7 236.2 547.85
M 217.15 551.95
L 216.95 551.95
Q 216.8 552.6 216.55 552.65 216.25 552.9 215.8 552.35
L 215.5 552.65 215.5 552.85
Q 215.5 553.2 215.2 553.25
L 214.9 553.25 215.5 552.65 215.5 552.35
Q 216.05 552.35 216.25 552.25
L 216.85 551.9 216.7 551.8 217 551.65 217 551.8
Q 217.45 551.8 217.15 551.95
M 207.55 564.7
L 207.55 565.3
Q 207.25 565.15 207.25 565
L 207.55 564.7
M 204.85 563.8
L 204.65 564 204.65 563.8
Q 204.6 563.8 204.65 563.7 204.85 563.55 204.85 563.7
L 205 563.7
Q 205 563.8 204.85 563.8
M 210.4 566.05
L 210.55 565.9
Q 210.85 566.2 210.85 566.35
L 210.85 566.65
Q 210.65 566.65 210.55 566.75 210.55 566.95 210.25 566.95 210.1 566.65 209.95 566.65
L 209.95 566.35
Q 210.25 566.05 210.4 566.05
M 221.65 557.8
Q 221.95 557.8 221.95 557.95 221.95 558.1 221.65 558.1 221.5 558.4 221.35 558.4
L 221.05 558.7 220.75 558.4 221.05 557.95
Q 221.2 557.8 221.65 557.8
M 221.35 564.3
Q 221.15234375 564.10234375 221.05 564.1
L 221.35 564.1 221.35 563.8 221.65 564.1
Q 221.5 564.4 221.35 564.3
M 248.95 539.45
Q 248.95 539.75 248.8 539.75
L 248.35 539.75 248.35 539.45 248.5 539.45
Q 248.85 539.45 248.95 539.2
L 248.95 539.45
M 210.25 508.25
L 210.25 508.5
Q 209.8 508.8 209.5 508.8
L 209.2 508.9 209.35 508.65 209.65 507.95 210.1 507.95
Q 210.25 508.05 210.25 508.25
M 201.25 564.1
L 201.25 563.55 201.4 563.6 201.5 563.55 201.5 563.8
Q 201.45 564.1 201.5 564.1 201.75 564.35 201.25 564.1
M 238 546.55
Q 238 546.64375 238.2 546.65
L 237.55 546.65
Q 237.35 546.55 237.55 546.55 237.7427734375 546.3572265625 237.95 546.35 237.809375 546.359375 238 546.55
M 232.15 546.35
L 232.75 546.35
Q 232.4546875 546.6453125 232.6 546.65
L 232.15 546.65
Q 231.85 546.65 231.85 546.55 231.85 546.35 232.15 546.35
M 229.3 548.9
L 229.3 548.3 229.45 548.1 229.9 548
Q 230.2 548.1 230.35 548.3 230.5 548.3 230.2 548.6
L 229.75 548.7
Q 229.55 548.9 229.3 548.9
M 232.75 550.05
L 232.75 550.65 231.25 551.5
Q 230.5 551.8 229.6 551.8 229.9 552.1 229.75 552.25 229.6 552.4 229.6 552.1 229.15 551.95 229.3 551.8
L 229.6 551.8
Q 230 550.95 230.8 550.5
L 232.15 549.75 232.45 549.75
Q 232.75 549.75 232.75 550.05
M 227.5 550.05
L 227.5 550.65
Q 227.2 551.2 226.6 551.5 225.85 551.65 225.4 552.1
L 225.1 552.1 225.1 551.2
Q 225.25 550.65 225.85 550.2 226.45 549.9 227.2 549.75
L 227.5 550.05
M 226.9 553.55
L 227.5 553.55 227.8 553.7 227.8 554 227.2 554 227.2 553.85
Q 227.05 553.85 226.9 553.55
M 225.4 555.2
L 226 555.2 226 555.5 225.85 555.6
Q 225.85 555.8 225.7 555.8
L 225.4 555.5 225.4 555.2
M 204.4 560.65
L 205.15 560.65
Q 205.25 560.65 205 560.9
L 204.85 561.2
Q 204.55 561.35 204.1 561.2
L 204.1 560.9 204.4 560.65
M 207.55 568.1
L 207.4 567.8 207.55 567.65 208.15 567.65
Q 208.45 567.65 208.45 567.8 208.6 567.95 208.45 567.95 208.3 568.25 208.15 568.25
L 208 568.35
Q 207.85 568.1 207.55 568.1
M 216.1 558.4
L 216.1 557.8 216.25 557.5 216.7 557.5
Q 217 557.5 217 557.7
L 217 558.1
Q 216.85 558.4 216.55 558.4
L 216.1 558.4
M 204.6 570.45
L 203.8 571.6 203.35 571.6
Q 203.35 571 203.65 570.7 204 570.45 204.6 570.45
L 204.65 570.3
Q 205.35 569.65 206.2 569.25 206.7 568.85 207.05 568.35 206.9 569.6 206.65 569.85 206.2 570.3 204.65 570.45
L 204.6 570.45 Z"/>
</g>
</g>
</g>

<g transform="matrix( 1, 0, 0, 1, -165.45,-455.55) ">
<g>
<g>
<path fill="#E3D9D9" stroke="none" d="
M 305.7 461.1
L 304.8 460.65 303.35 460.2
Q 302.8 460 301.7 459.8 300.25 459.35 299.9 460.65 299.3 462.95 297.95 466.4
L 293.1 477.25
Q 292.8 477.7 292.8 478.15 292.75 478.55 293.1 479 293.65 479.75 293.4 480.2 293.35 480.75 292.8 481.2 292.1 481.65 291.95 482.25 291.65 483 291.65 483.85
L 291.05 485.9
Q 290.6 486.65 289.85 487.5
L 289.7 487.6
Q 289.45 487.15 289.1 487.1 288.65 486.8 288.2 487.5
L 287.7 488.55
Q 287.4 489.15 287.3 489.9
L 287.6 489.9
Q 287.95 489.9 288.2 489.7
L 288.5 489.6
Q 288.95 489.9 288.95 490.15 288.8 490.6 288.5 490.75 288.35 491.25 288 491.65 287.6 492.05 287.6 492.65 286.35 496.3 284.55 499.55 282.85 502.55 281.6 506.45 281.25 506.95 281 507.15
L 280.5 507.95
Q 280.45 508.3 280.1 508.8 279.8 509.1 279.35 509.1 278.25 509.1 277.55 509.7 276.75 510.35 276.35 511.15 275.9 511.75 275.4 511.9 275 512 274.2 512 272.8 512 271.35 511.7 270.3 511.6 269.2 511.7 269.6 510.4 270.65 510.55
L 270.95 510.6 273.2 510.3 273.65 510.3 273.2 510 268.45 509.9
Q 266.35 509.85 263 510.3
L 261.05 510.6 261.6 510.55
Q 259.6 510.85 258.95 512.2 258.2 513.65 258.2 515.15
L 258.2 519.95
Q 258.35 522.4 259.35 524.95 260.2 526.9 261.2 527.9 262.35 528.9 264.35 528.9 265.6 529.05 266.55 529.35 267.75 529.5 268.7 530.35
L 269.3 531.1
Q 269.4 531.4 269.3 531.85 268.2 533.55 267.5 535.35
L 266.25 539.2
Q 263.25 545.25 261.05 550.05 258.85 554.6 256.4 561.05
L 255.8 561.95
Q 255.35 562.45 255.2 562.8 255.2 562.95 254.85 562.95 254.7 563.1 254.55 562.8
L 254.55 562.5 254.85 561.35
Q 255.2 560.8 255.2 560.15 255 560.35 254.85 560.35 254.55 560.35 254.55 560.45 253.95 561.2 253.65 561.8
L 252.95 563.1
Q 252.65 564.05 251.9 564.1 251.05 564.4 250.5 565
L 247.95 571 246.15 577.2
Q 245.7 579 247.05 580.85 248.55 582.75 250.7 584.4 252.7 585.7 255.5 586.3
L 257.4 586.6
Q 258.5 586.75 259.05 587.5 260 588.2 261.05 588.2
L 262.8 588.05
Q 263.3 587.9 263.7 587.5 264 587.2 264 586.6 263.85 584.7 264.75 582.75 265.65 581 266.25 578.95 266.9 576.5 267.9 574.1 268.9 571.9 269.9 569.15 271.25 565.65 272.55 562.95 274.15 559.9 274.8 556.35
L 274.8 556.2
Q 275 556.05 275.1 555.8 276.55 554.2 277.05 552.55 277.7 550.7 278.55 549.2 279.55 547.55 280.2 545.75 281.05 544.1 281.6 542.1 282 540.75 282.65 539.6 283.25 538.5 283.95 536.95
L 285.05 535.2
Q 285.6 534.3 285.95 533.2 286.5 531.25 288 530.25 289.35 529.2 291.5 529.2
L 324 529.75 324.8 530.05
Q 325.7 530.35 326 531.1 326.3 531.85 326.15 532.45
L 310.7 555.6
Q 309.7 557.3 307.7 560.65 307.25 561.35 306.65 561.65 306.05 561.95 305.1 561.8
L 304.25 563.1
Q 303.65 563.7 303.65 564.4
L 303.95 564.1
Q 304.25 564.95 304.25 565.6 304.25 566.3 303.65 567.05 303.15 567.5 302.75 567.05 302.75 566.7 302.55 566.45 302.45 566.05 302.15 566.45
L 301.25 568.1
Q 300.65 568.85 300.65 569.7 300.95 569.85 301.1 569.7 301.4 569.4 301.55 569.4 301.55 569.25 301.85 569.25
L 302.15 569.4
Q 302.3 570.15 301.85 570.9 301.25 571.6 300.3 571.8
L 300 571.8 300 572.8
Q 300 573.2 299.3 573.35
L 299.7 572.65
Q 299.9 572.25 299.9 571.8
L 300 570.6 300.5 569.7 299.3 571.2 298.4 573.1
Q 297.7 574.45 297.05 576.3 296.5 577.95 295.55 579.7 294.5 581.45 294.65 583.05 294.8 584.65 295.55 586.3 296.6 588.1 297.5 589.35 298.6 590.9 299.9 592 300.8 592.45 301.55 593.5 302.45 594.4 303.35 594.7 304.4 595.05 305.1 595.7 306.6 596.95 306.65 597 307.95 598.15 308.75 598.15 309.55 598.15 311 597 311.6 596.55 312 596 312.3 595.45 312.2 594.7 311.3 593.05 311.6 591.55 311.75 589.9 312.5 588.65
L 313.4 587
Q 313.85 586.2 314 585.25 314.4 583.1 315.45 580.7
L 320.15 572.2
Q 321.4 570.35 321.95 567.65
L 322.55 566.05
Q 322.7 565.45 323.9 565
L 324.2 564.4
Q 324.35 564.35 324.2 563.8 324.05 563.1 324.5 562.65 325 562.15 325.4 561.95 325.25 560.9 326 560.45 326.9 559.9 327.15 559.55
L 327.45 559.55
Q 326.85 559.2 326.85 558.7 326.85 558.25 327.15 557.8 328.85 555.55 330.8 552.55 332.85 549.35 334.25 547.25
L 335.9 544.45
Q 336.35 543.85 336.5 543.15 336.8 542.4 336.2 541.5 336.2 541.25 336.5 541.1 336.8 540.95 337.1 540.95
L 337.7 541.1
Q 338 541.1 338.3 540.95 339.1 539.5 339.95 538.3 340.85 537.1 341 535.8 341.15 534.9 341.45 534.3
L 342.3 533
Q 343.6 532.05 344.6 531.55 345.95 531.1 347.45 531.25 348.65 531.4 349.4 530.65
L 351.2 529.2
Q 351.8 528.35 351.65 527.75 351.65 526.9 351.45 526.1
L 351.45 524.65 351.2 523.15
Q 350.75 522.3 350.9 521.55 351 520.95 351.45 520.1 352 519.6 352.25 519.2
L 355.1 516.15
Q 356.4 514.65 357.05 513.8 357.9 512.55 358.7 510.85 359.45 509.3 360.6 507.75 360.95 507.7 360.95 507.05 360.8 506.45 361.1 506
L 361.25 505.6 361.7 505.15
Q 364.05 503 365.6 500.55 367.55 497.7 369.05 495.9
L 371.45 491.65
Q 372.6 489.5 374.9 487.95 375.35 487.95 375.5 487.5
L 375.8 486.8
Q 376.4 485.9 376.85 484.85 377.4 483.55 377.9 482.55 379.05 481.25 379.85 479.75
L 381.8 475.95
Q 382.1 475.5 381.95 475.05
L 381.05 471.1
Q 380.6 469.1 378.8 467.55 377.5 466.4 375.5 465.05
L 371.75 462.45
Q 371.15 461.95 370.55 462.15 370.1 462.15 369.65 463.05 367.8 467.15 365.45 470.65 363.1 474.35 360.6 477.55 360.2 478.2 360.05 478.75 360.05 479.3 360.35 480.2 360.5 480.5 360.2 480.8 359.9 481.1 359.15 481.1 358.35 481.1 357.95 481.5 357.5 481.95 357.95 483 356.8 483.5 356.15 484.55 355.55 485.45 356.45 486.8 356.45 487.3 356 487.5 355.6 487.7 355.25 487.7 355.4 488.55 354.95 489.4 354.35 490.3 353.6 491.05
L 353.6 490.75
Q 353.3 492.7 351.75 493.95 350.45 495.15 350 497.35 348.4 498.85 347.3 500.85
L 343.4 506.9
Q 342.85 508 341.75 508.8 340.7 509.1 339.35 509.1
L 336.8 509.4 335.9 509.4 335.9 509.85
Q 335.9 510 336.2 510 336.35 510.35 336 510.7 335.7 511.15 335.3 511.15
L 333.15 511.45 330.95 511.45
Q 327.2 511.45 323.3 511.3
L 308.85 511.45
Q 305.35 511.45 302.25 512 301.4 512.25 300.3 512
L 298.4 511.45
Q 297.5 511.3 297.35 511 297.2 510.9 297.5 510 297.8 508.8 298.25 507.75 298.55 506.6 299.3 505.7 301.3 502 303.35 497.65 305.55 493.3 307.25 489.3 309.15 484.9 311 481.1 313.3 476.45 314.85 473 316.1 470.8 315.8 468.9 315.65 467 314 465.2 312.6 463.4 310.85 462.25 309.1 461.1 306.65 461.25
L 305.7 461.1
M 278.75 510.55
L 278.75 510.85
Q 278.75 511 278.55 511
L 278.45 510.85 278.45 510.55 278.75 510.55
M 269.9 564.1
L 270.2 564.1 269.9 564.4 269.9 564.1
M 357.65 483
L 357.95 483 357.7 482.85 357.65 483 Z"/>
</g>
</g>
</g>

<g transform="matrix( 1, 0, 0, 1, -165.45,-455.55) ">
<g>
<g>
<path fill="#E3D9D9" stroke="none" d="
M 409.25 473
Q 407.85 471.75 406.1 470.8 404.6 469.95 402.5 469.65 401.45 469.35 400.55 468.75 399.65 468.15 398.45 468.45 397.7 469.05 397.55 470.05 397.25 471 396.65 471.8
L 395.8 474.25
Q 396.2 474.65 396.05 474.9 396.05 475.2 395.75 475.35
L 395.75 475.05
Q 395.6 475.8 395.3 475.65 395 475.5 394.85 475.05
L 394.85 475.35
Q 394.4 475.35 394.25 475.8
L 394.25 477.55
Q 393.95 478 393.95 478.45 393.8 479 393.35 479.3
L 393.35 479 392.45 479.9 392.75 479.9
Q 391.65 482.55 390.5 484.45 388.95 487 387.8 488.55 387 489.6 386 490.45 385.1 491.35 383.45 491.35
L 382.85 492.25
Q 383.4 492.3 383.75 492.65 384.2 493.1 383.75 493.7 383.3 495.05 382.25 496 381.55 496.75 380.15 497.95 379.8 499.05 379.2 500
L 377.9 501.75
Q 375.85 504.7 374.45 506.45 372.65 508.8 371.45 511.45 370.65 512.2 369.65 513.35
L 367.85 515.45
Q 367.55 515.8 367.4 516.3 367.4 516.8 367.85 517.15
L 367.55 517.15
Q 367.7 517 367.55 516.85
L 366.2 518.05
Q 365.75 518.5 364.7 519.2 364.25 519.75 364.25 520.25
L 364.05 521.25 364.05 521.45
Q 363.55 521.45 363.35 521.55 363.05 521.7 362.9 522 361.35 523.6 359.9 525.8 358.5 527.95 357.65 530.05
L 357.05 530.05
Q 355.15 532.7 353.75 534.8
L 350.3 539.35
Q 349.2 540.8 348.2 542.7 347.1 544.55 345.95 545.95 345.65 546.25 345.05 546.65
L 343.85 547.25 344.15 547.25
Q 344 548 343.7 548.9 343.4 549.6 342.3 549.6 342.3 550.05 342 550.5
L 341.85 551.1
Q 341.75 550.9 341.75 550.5
L 341.45 549.75
Q 340.3 550.65 339.45 551.95 339 552.6 337.7 554.75
L 325.7 576.05
Q 325.55 576.75 325.25 577.2 325.1 577.8 325.1 578.5 325.25 579.8 325.85 581 326.35 581.95 327.45 583.25 330.6 585.9 333.45 587.6 336.9 589.8 339.45 591.75 339.95 592.15 340.85 592.3
L 342.3 592.6
Q 342.9 592.6 343.4 592.3 343.85 592 344.15 591.45
L 344.9 590.1 345.35 588.65 348.6 582.75
Q 350.5 579.85 351.75 576.9
L 354.2 572.95
Q 355.25 570.7 355.55 568.55 356 568.25 356.15 567.95 356.3 567.5 356.15 567.05
L 356.15 566.2
Q 356.15 565.75 356.45 565.6 358.2 563.6 359.15 561.2 360.15 558.85 361.7 556.8 363.45 554.85 365 552.35
L 367.55 547.85
Q 368.3 546.65 369.2 545.75 370.1 544.9 370.55 543.6 371 542.35 371.75 541.4 372.5 540.35 373.7 539.6 374.15 539.45 374.3 539.05
L 374.9 538.15
Q 375.05 537.15 375.8 536.1 376.3 535.3 377.3 534.6 379.4 532 381.05 529.35 382.65 526.8 384.95 524.35 388.2 519.4 391.7 514.95 395.2 510.45 398.45 505.4
L 404.15 497.8
Q 407 493.85 409.55 489.7 410.8 487.9 411.8 486.05 412.9 484.2 413.9 481.95 414.2 481.5 414.2 481.1 414.35 480.6 414.2 480.2 413.45 478 412.25 476.25 411 474.6 409.25 473
M 363.75 523.45
L 363.5 523.65
Q 363.3 523.45 363.5 523.45
L 363.5 523.3 363.75 523.45 Z"/>
</g>
</g>
</g>

<g transform="matrix( 1, 0, 0, 1, -165.45,-455.55) ">
<g>
<g>
<path fill="#E3D9D9" stroke="none" d="
M 494.25 483.4
Q 492.85 483.55 491.4 484.45 487.9 486.7 484.8 488.25 481.3 490.25 478.2 491.65
L 425.05 520.25
Q 424.15 520.7 423.1 521 422.15 521.25 421 521.75 420.5 521.85 420.45 521.55 420.15 521.25 420.15 520.85 420.45 520.4 420.45 519.7 420.5 518.95 420.7 518.5 422.55 513.3 424.75 506.75 426.75 500.25 428.5 495 429.3 492.05 430.95 487.4 432.25 483.15 433 479.6 433.95 476.55 433.2 474.3 432.25 472 430.05 470.35 427.6 468.8 424.75 468 422.1 467.4 419.25 467.55 418.15 467.55 417.55 468.15 416.95 468.65 416.8 469.75 415.8 472.3 415.2 474.3
L 413.65 479
Q 410.5 489.9 407.05 500.75 403.8 511.5 399.55 522.3
L 398.95 524.05
Q 398.7 525.2 398.7 526 398.4 528.2 397.5 530.35
L 395.25 534.6
Q 394.4 536.3 393.1 537.85 392 539.1 390.1 540.35 387.85 541.55 387.55 542.4 387.25 543.3 388.15 545.5 388.15 545.95 388.45 546.55 388.6 547.05 389.25 547.55 389.5 548.2 389.5 549
L 389.25 550.65
Q 387.6 554.05 386.1 557.8 384.95 560.65 383.35 565
L 375.55 582.45
Q 373.45 587.2 371.2 592.6
L 367 602.9
Q 366.65 603.65 366.7 604.05 366.85 604.65 367.3 605.25 369.45 608.95 372.7 611.1 376.1 613.3 379.9 614.6 381.1 615.05 382.05 614.9
L 384.25 614.9
Q 386.2 614.4 386.65 613.75 387.4 613 387.55 611.25 387.55 609.95 387.85 608.6 388.05 607.35 388.45 606.25 389.65 602.15 391 598.15 392.8 593.25 394.05 590.25
L 400.95 572.8
Q 404.6 563.65 407.55 555.3 408.9 552.3 410.8 550.05 412.8 547.8 415.6 546.05 420.05 543.05 424.35 540.8
L 437.95 533.6
Q 439.3 533 440.2 534.2 441.05 535.3 443.25 538.9 448.9 547.9 456.25 559.15 463.65 570 469.95 578.8 474.05 584.25 477.6 589.35 480 592.95 480.6 595.85 481.45 594.05 481.9 588.8 483.85 566.2 479.35 559.85 474.4 552.75 469.8 545.5 464.4 536.95 460.8 530.65 460.2 529.85 458.5 527.45 457.5 525.75 457.35 523.75 459.1 522.4 460.8 521.55 461.9 521 464.1 519.7
L 464.5 519.4
Q 464.85 519.4 465 519.2 473.15 515.4 479.25 512.2
L 493.35 504.55
Q 495.9 503.1 499.35 501.35 502.5 499.7 506.25 499.4 507.15 499.25 507.6 498.55 507.95 498.1 508.3 497.1
L 508.3 495.75 508 494.25
Q 507 492.05 505.15 489.7 503.5 487.75 500.7 486.2 499.65 485.65 498.75 485.35
L 496.95 484.15
Q 495.6 483.4 494.25 483.4 Z"/>
</g>
</g>
</g>

<g transform="matrix( 1, 0, 0, 1, -165.45,-455.55) ">
<g>
<g>
<path fill="#E3D9D9" stroke="none" d="
M 534.6 492.85
Q 533.8 493.25 532.85 494.15 532 494.9 531.45 495.75 529.55 498.75 526.65 501.35 523.75 503.9 521.75 506.6 519.6 507.85 518.3 509.55 516.75 511.35 515.3 512.6 513.95 513.8 513.35 514.65 512.3 516.05 511.5 516.85 511.15 517.75 510.6 516.85
L 508.25 519.95
Q 507.1 521.4 506.25 523.15 506.2 523.65 505.7 523.95 505.25 524.3 504.8 524.8 504.5 525 503.3 526.1 502.55 526.7 501.95 527.45 501.3 528.35 500.25 528.9 499.1 529.95 498.6 530.55 498.2 530.95 498.3 531.4 498.45 531.75 498.75 532.05
L 498.6 532.3 498.9 532.3 497.1 533
Q 496.25 533.3 496.85 534.9
L 496.65 535.1
Q 496.55 535.2 496.55 535.5
L 494.25 537.85
Q 493.5 538.75 491.9 540.35 491.05 540.95 490.65 541.7 490.2 542.3 490.05 543.3
L 489.95 544.45
Q 489.7 545.2 489.15 545.5 488.15 545.95 487.4 547.1
L 485.7 549.2
Q 485.1 549.6 484.55 550.5 484.05 551.25 484.25 552.35 484.25 552.8 483.75 553.45 483.35 554 483.05 554.75 480.05 557.75 478.35 560.15 476.6 562.4 475.65 564.7 475.2 565.75 474.6 566.65 474 567.35 473 567.35 472.25 567.65 471.95 567.95 471.75 568.4 471.95 568.85 472.5 570.2 472.05 571 471.75 571.9 470.45 572.2 469.95 572.2 469.95 572.35
L 469.85 573.1
Q 469.85 573.85 469.5 574.4 469.2 575 468.3 575.45 468.05 575.65 467.4 576.6 467.1 577.2 467.4 577.9 467.4 579 466.8 579.8 466.05 580.7 466.35 581.75 466.35 582.1 466.2 582.15 466.2 582.45 466.05 582.65 465.45 583.3 465.15 584.4 464.85 585.4 464.85 586.3
L 464.85 587.5
Q 464.85 588.05 464.55 588.65 463.9 590.25 463.85 591.55 463.7 593.35 463.95 594.7 464.2 598.4 465.35 601.55 466.3 604.7 469.5 607 469.9 607.35 470.55 608.15 471.05 608.65 471.65 609.5 473.3 611.25 475.2 612.75 477.05 614.35 479.4 615.5
L 480.5 615.9
Q 481.05 616.2 481.5 616.7
L 484.25 618.3
Q 485.6 618.85 487.4 618.75 487.75 618.6 488.45 618.85
L 489.75 619.3
Q 492.8 620.4 495.65 620.15 498.2 620.1 501.05 618.45 504.25 616.6 506.25 615.05 508.5 613.45 510.9 610.95
L 515.9 605.65
Q 518.45 603.05 520.55 600.1 521.4 598.75 522.9 597 524.35 595.35 525.35 593.8 526.25 592.9 527.3 592.45 528.35 592 529.7 592
L 530.6 592.15
Q 531.1 592.3 531.45 592.6 532.35 593.05 533.15 592.75 533.95 592.45 534.6 592 535.15 591.55 535.4 591.15
L 555.8 565
Q 557.05 563.55 558.2 561.65 559 560.2 560.4 558.7 561 558 561.35 557.1 561.8 556.15 561.9 555.5 563.65 554.05 564.65 552.55 565.7 551 566.6 548.75
L 565.8 549.2
Q 565.35 549.2 565.1 549.45 564.95 548.6 565.4 548 565.7 547.4 566.75 546.95
L 566.75 547.25
Q 567.05 545.5 567.95 544.15 568.8 542.9 569.45 541.5 569.75 541.45 569.9 541.2
L 570.05 541.2
Q 570.45 541.4 570.35 541.4 570.05 541.4 570.05 541.8
L 570.05 542.4
Q 570.05 542.85 570.65 542.4 571.7 541.45 572.3 540.2 572.9 538.85 573.05 537.55 572.3 536.95 572.3 536.55 572.3 536.25 573.05 535.8
L 573.05 536.1
Q 573.35 535.8 573.5 535.8 573.8 535.65 573.95 536.1
L 573.95 535.8
Q 574.3 535.45 574.65 534.6 575.05 533.75 575.15 533.2
L 575.45 532.7
Q 575.55 532.45 575.75 532.3 576.65 529.7 577.1 527.45 577.4 525.75 577.8 522.6 577.8 520.85 577.5 519.2
L 576.95 516
Q 576.95 514.85 576.65 513.95
L 575.75 512.3
Q 572.3 508.25 568.1 505.4 563.85 502.55 559.2 500.85 557.4 500.3 555.2 500.15 553.1 500 551.25 500 550 500.25 549.35 499.85 548.65 499.45 548.1 498.55 547.5 497.35 546.6 496.6
L 544.85 495.15 542.45 494.15
Q 541.45 493.65 540.2 492.85 538.95 491.75 537.45 491.95 536.05 492.05 534.6 492.85
M 489.95 572.35
Q 490.05 572.15 490.05 572.5
L 489.95 572.8 489.75 573.1
Q 489.5 573.5 489.15 573.5 488.85 573.65 488.55 573.65
L 489.05 573.25
Q 489.4 572.9 489.45 572.5
L 489.95 572.35
M 556.25 555.6
Q 556.398828125 555.6 556.4 555.55
L 556.4 555.65 556.55 555.9 556.25 556.2
Q 556.1 556.2 555.95 555.9
L 556.25 555.9 556.4 555.65 556.25 555.8 556.25 555.6
M 552.2 559.85
Q 552.2 559.55 552.35 559.75 552.65 559.8 552.8 560.15
L 552.8 560.45
Q 552.8 561.2 552.2 561.8 551.75 562.5 550.95 562.5
L 550.65 562.5 550.65 562.2
Q 550.65 561.35 551.15 560.9 551.75 560.45 552.2 559.85
M 558.9 558.55
Q 558.8501953125 558.551171875 558.9 558.85 558.65 558.85 558.65 558.7
L 558.65 558.55 558.9 558.55
M 482.15 589.55
L 482.15 590.1
Q 481.95 590.1 481.8 589.85
L 481.8 589.55 482.15 589.55
M 480.3 595.85
L 480.6 595.85 480.3 596.15 480.3 595.85
M 560.9 515.55
Q 560.75 515.7 560.75 516 560.45 519.2 559.2 522.3 558.3 524.8 556.85 528.3 556.5 529.5 556.05 530.35 555.7 531.2 554.9 532.15 552.4 536.35 549.35 541.2
L 549.05 542.1
Q 548.75 542.55 548.75 543 549.05 543 549.2 543.15 549.35 543.45 549.05 543.6
L 548.9 543.75
Q 548.75 543.75 548.75 543.85 548.6 543.85 548.45 544.15 548.45 544.3 548.1 544.45 547.6 545 547.4 545.5 547.4 545.9 547.8 546.95 547.8 547.1 548 547.25 548.1 547.25 548.1 547.55
L 547.8 547.85
Q 547.2 548.4 546.35 548.4 545.45 548.4 544.85 548.7 544.55 548.7 544.35 548.9 544.25 549 544.25 549.3 543.95 549.75 544.05 549.9 544.3 550.2 544.55 550.2 544.95 550.35 545.25 550.65
L 545.75 550.9 545.75 550.5 546.05 550.5 545.9 550.8 545.75 550.9 546.05 551.05
Q 545.85 551.05 545.75 550.95
L 545.75 551.05 544.65 552.1
Q 544.1 552.65 543.2 552.55
L 542.75 553.45
Q 542.35 553.95 542.05 554.2
L 541.8 554.15
Q 541.7 554 541.4 554.15
L 540.2 554.6
Q 539.45 555.1 539.25 555.3 538.9 555.9 538.05 556.05 537.5 556.2 536.75 555.9
L 534.05 555.6
Q 532.5 555.45 531.65 555.05
L 530.75 554.75 529.7 554.75
Q 527.4 554.75 526.95 556.5 526.65 558.7 525.45 560.75 524.45 562.85 522.9 564.6
L 520.95 567.05
Q 520.45 568.05 519.35 569.7 518.9 570 518.75 570.45 518.5 570.95 518.1 571.2 516.15 573.1 514.55 575.55 513.4 577.4 511.4 580.3 509.05 583.15 508.05 584.55 506.7 586.4 504.5 588.95
L 501.65 592.45
Q 499.95 594.35 498.8 595.85 497.4 597.65 496.05 598.9
L 493.5 601.55
Q 492 603.25 489.75 604.65
L 485.4 607.3
Q 484.3 608 483.65 607.7 482.8 607.4 482.45 605.85 481.65 603.4 481.5 601.1 481.35 598.65 481.8 596.15 482.25 594.1 482.55 592.15
L 483.65 588.35 483.95 587.75 483.95 586.9 483.45 586.4 482.75 586 483.65 586.15
Q 483.95 586.45 483.95 586.9 484.8 586.05 485.1 584.8 485.65 583.75 485.7 582.65 485.3 582.65 485.1 582.45
L 484.75 582.25
Q 484.9701171875 582.35 485.1 582.35 485.65 582.45 485.7 582.65 486.2 582.45 486.5 582.05
L 487.1 581.15
Q 488.2 578.3 489.95 575.25 491.4 572.65 493.5 569.4 493.5 569.3 493.8 569.15 494.15 569.15 494.15 568.85 493.65 568.35 493.2 568.65
L 492.3 569.15 492 569.4
Q 491.95 569.55 492 569.7 491.65 569.25 491.7 569.25
L 492.3 569.15
Q 492 568.5 492.2 567.95
L 495.1 563.5
Q 495.4 564.4 495.45 564.9 495.721484375 565.5333984375 495.85 566.15 495.78671875 565.694921875 496.05 565.3 496.3 565 496.55 564.4 497.95 562.65 498.6 561.65 500.15 559.65 500.55 559 500.95 558.4 501.05 558.1
L 501.15 557.2 500.95 557.1 500.9 557.1 500.9 557.05 500.95 557.1
Q 501 557.1 501.75 556.95
L 502.35 556.5
Q 503.35 555.1 504.2 553.7
L 506 550.9 505.2 550.8 504.8 550.6
Q 504.75 550.8 504.6 550.8
L 504.4 550.65
Q 504.5 550.684765625 504.5 550.5
L 504.8 550.6 504.8 550.35
Q 504.792578125 550.6390625 504.5 550.2
L 505.7 550.2 505.7 550.35
Q 506 549.9 506.25 550.05 506.45 550.05 506.75 550.35
L 508.05 548.9
Q 508.65 548.05 509.15 546.95 508.65 546.95 508.65 546.8 508.65 546.65 509.15 546.35 509.45 546.3 509.6 545.95 509.7 545.75 509.7 545.5
L 510.2 545.05 510.6 544.9 511.5 544.05 512 542.7
Q 512.15 542.35 512.15 541.5 512.75 540.8 513.15 540.5 513.75 540.05 514.65 540.05
L 515.6 540.05
Q 516.6 539.2 518 537.45 518.9 535.95 519.65 534.3
L 520.95 533.75
Q 521.65 533.25 522.3 533.2 521.95 532.6 521.6 532.3 521.3 531.7 522.3 531.25 523.2 531.1 524.1 530.35 524.9 529.7 525.45 528.9 526.05 527.75 527.15 527 528.15 526 528.8 524.95 531.35 523.5 533.75 521.45 535.6 519.55 538.35 517.75 539.3 516.95 540.35 516.6 541.5 516 542.9 516 543.35 515.7 543.75 515.7
L 544.85 515.45
Q 548 513.2 551.75 512.75 555.5 512.25 559.2 512 561.95 512 561.05 514.85 561.05 515.25 560.9 515.55
M 555.8 561.95
L 556.05 561.65 556.35 561.75 556.35 561.7 556.55 561.95
Q 556.4 562.35 556.25 562.35 556.05 562.35 555.8 562.2
L 555.8 561.95
M 540.5 556.2
L 541.1 556.2
Q 540.95 556.65 540.6 556.5
L 540.5 556.2
M 481.2 592.5
L 481.2 592 481.5 592.3 481.4 592.3
Q 481.2064453125 592.3 481.2 592.5 Z"/>
</g>
</g>
</g>

<g transform="matrix( 1, 0, 0, 1, -165.45,-455.55) ">
<g>
<g>
<path fill="#E3D9D9" stroke="none" d="
M 673.05 458.9
Q 672.1 459.75 670.8 460.5
L 666.7 462.85
Q 664.35 464.35 662.5 465.35
L 658.8 467.55
Q 656.35 469 654.85 469.75
L 653.2 470.65
Q 650.7 472.05 647.35 473.7 644.4 475.15 641.8 477.4
L 641.5 477.4 641.5 476.95 640.9 477.55
Q 640.5 477.75 640.3 477.95
L 640.25 477.95 635.65 480.6
Q 634.45 480.9 633.4 481.65
L 631.6 483 630.85 483.4
Q 630.55 483.55 630.1 483.55 629.65 484 629.05 484.15 628.3 484.45 628.3 485.05
L 628 485 628 485.05
Q 626.35 485.4 625.05 486.35 623.6 487.15 622.2 488.35
L 622.15 487.95
Q 621.2 488.75 620.35 489.1
L 617.8 490.6
Q 617.35 491.05 617.5 491.65
L 617.2 491.65
Q 615.85 491.65 614.95 492.55
L 613.3 493.95 613.15 493.95 613.1 494 613 493.95 612.45 493.95
Q 611.7 494.35 611.35 494.7 610.9 495.15 611.2 495.75 610.45 495.9 609.85 495.9 609.1 495.75 608.65 496.3 608.5 496.55 608.2 496.8 608.05 496.8 607.75 497.1
L 607.45 497.1
Q 608.05 497.2 608.05 497.5
L 607.45 497.95 607.75 497.95 606.7 498.95 606.7 498.65
Q 605.8 499.4 604.75 499.55 603.7 499.55 602.5 500.15 598.6 502.8 594.4 505.4
L 582.25 513.05
Q 581.8 513.5 581.35 513.5 580.9 513.35 580.3 512.75 579.85 512.3 579.25 512.9 578.65 513.5 578.5 514.25 578.9 515.6 579.25 517.15 579.55 518.55 580 519.95 581.5 523.55 583.75 526.6 586 529.55 589 532 590.05 532.5 590.65 532.7 591.65 532.9 592.3 532.9 596.35 532.9 600.4 532.45 604.3 532 608.2 531.7 610.3 531.7 612.25 531.4 614.2 531.1 616 531.1 619.45 531.1 623.05 530.95 626.4 530.95 630.1 530.55 632.8 530.05 635.65 530.05
L 641.5 530.55
Q 641.8 530.35 642.25 530.55 642.8 530.55 643.05 531.1 643.05 531.7 642.75 531.85
L 642.1 532.3
Q 640.1 533.4 637.75 535.2 635.55 537.1 634.2 538.6 633.5 539.4 632.5 540.2 631.45 540.95 630.1 540.65 629.65 540.65 629.05 540.95 628.65 541.1 628.3 541.5 627.2 543.2 625.9 544.15 624.45 545.2 623.35 546.65 622.5 548.05 620.95 549 619.45 550.05 617.5 550.35
L 616.9 550.65
Q 616.6 550.8 616.6 550.9 616.3 552.25 615.4 552.85 614.45 553.5 613.6 553.55 610.65 554.75 608.05 556.8 606.05 558.5 603.4 561.05 603.4 561.95 602.95 562.1
L 601.9 562.35
Q 601.45 562.5 601 563.1 600.7 563.6 600.1 563.8 599.5 563.8 599.5 564.6 599.65 565.3 599.05 565.6 597.15 566.2 595.6 567.5 594.05 568.9 592.3 569.55 592 569.55 591.7 569.85 591.55 570.15 591.85 570.3
L 592.75 570.3
Q 593.05 570.6 593.2 570.6 593.35 570.7 593.35 570.6 593.5 571 593.35 571.2
L 592.75 571.6
Q 592.35 571.8 592.15 571.8
L 591.55 571.9
Q 590.35 572.05 589.15 572.5 587.9 572.95 587.2 573.95 586.45 574.85 585.7 575.15 585.1 575.45 583.9 575.75
L 583.75 575.75
Q 584.05 576.6 583.6 576.75 583.15 577.05 582.55 576.9
L 582.55 577.05 581.65 577.9 581.05 577.9
Q 579.05 579.05 577.15 580.7
L 573.85 583.95
Q 573.55 584.55 572.95 584.55 572.35 584.7 571.45 584.25 570.7 584.1 570.4 584.55 569.95 585.1 570.25 585.85 571.15 587.7 571.6 589.55
L 572.95 593.3 574.45 596
Q 575.25 597.25 576.4 598.15
L 578.8 600.5 583.15 603.75
Q 583.6 603.9 583.9 603.75 584.2 603.75 584.65 603.45
L 589.15 597.75
Q 591 595.35 593.2 593.3
L 597.25 589.85
Q 599.3 588.1 600.7 585.85 600.85 585.55 601.15 585.55
L 601.6 585.25
Q 602.75 584.95 603.55 584.25 604.6 583.5 605.2 582.45 606.8 580.95 607.6 580.3
L 612.1 576.15
Q 612.8 575.45 614.2 574.4 616.8 572.6 618.85 571.3 620.75 570.1 623.35 568.1
L 625.75 566.35
Q 626.95 565.45 627.7 564.1
L 628.6 563.1
Q 628.9 562.8 629.65 562.65 631.4 562.2 632.8 561.05 634.2 559.95 635.2 558.4 635.65 557.5 636.4 557.5 637.15 557.5 637.9 557.2 638.65 556.85 638.8 555.9 638.95 555.2 639.7 555.05
L 640 554.75
Q 640.9 554.75 641.65 554.3 642.35 554.05 643.05 553.55 646.2 551.2 649.15 549.45
L 667.75 537.45
Q 669.1 536.5 670.5 535.35 672.1 534.15 673.65 533.45 675.2 532.7 676.6 531.7
L 680.35 529.05
Q 680.8 528.75 680.95 528.2 681.1 527.6 680.95 526.85 680.6 525.5 680.55 524.5
L 680.05 522
Q 675.9 515.3 668.95 511.3 668.05 510.7 667.35 510.85 666.5 510.85 665.65 511.45 666.05 511.25 666.4 511.6
L 666.4 511.9
Q 666.25 511.9 666.1 511.7
L 665.8 511.6
Q 664.4 512.55 662.95 512.6
L 659.95 513.05 630.1 513.95
Q 627.4 514.1 624.85 514.1 622.15 513.95 619.45 513.95 618.85 513.95 618.75 513.65 618.55 513.35 618.85 512.5
L 618.7 512.4
Q 619.5 511.95 620.2 511.9 620.95 511.75 621.25 510.7
L 621.25 509.7
Q 621.55 509.4 622 509.25
L 622.95 508.85 623.65 507.95
Q 623.9 507.5 624.75 507.05
L 627.25 506.15 629.3 505.1
Q 629.75 504.35 630.4 504
L 631.9 503.4 631.6 503.4
Q 631.9 502.8 632.5 502.8
L 633.6 502.5 633.6 502.8
Q 634.3 501.45 635.05 501.05 635.75 500.75 636.85 500.75
L 637.35 500.45 637.45 500.15
Q 638.2 499.7 638.8 499.85 639.25 500 640 499.85 640.6 499.55 640.5 498.95 640.3 498.55 640.6 497.95
L 640.9 497.65
Q 641.05 497.65 641.2 497.35 642.15 496.9 643.05 496.6 643.75 496.2 644.95 496.2
L 645.4 495.6
Q 645.55 495.25 645.9 495 646 494.7 646.2 494.7
L 646.5 494.7
Q 646.8 494.4 646.9 494.4
L 647.35 494.4 647.35 495.6
Q 648.65 495.2 650.05 494.25 651.3 493.65 652.6 492.65 652.85 492.4 652.85 492.3 653.3 491.9 653.95 491.75 654.7 491.7 655.45 491.35 656 491.15 656.2 490.75 656.5 490.3 656.35 489.6
L 656.05 489.6 656.05 489.3 656.35 489
Q 657.25 488.4 658 488.1 658.9 487.65 659.95 488.1 660.85 488.25 661.35 487.8
L 663.4 486.8
Q 663.95 486.5 663.4 485.65 663.4 485.35 664 485.05 664.6 484.75 664.9 485.05 665.5 485.9 665.95 485.65 666.55 485.35 666.85 485.05 667.4 484.15 668.05 484
L 669.55 483.55
Q 670.75 483.1 672.25 482.25 673.7 481.65 674.8 480.6 674.95 480.2 675.25 479.9 675.55 479.75 676 479.75 677.35 479.45 678.55 478.55 679.35 477.95 680.95 476.95 684.1 475.3 685.05 473 685.95 470.75 684.85 467.4 684.7 466.75 684.4 466.2
L 683.95 465.05
Q 682.65 462.4 680.55 460.2 678.4 458.05 676 455.95 675.25 455.6 674.95 455.65 674.6 456 674.55 456.55 674 457.8 673.05 458.9
M 653.5 539.2
L 653.5 539.45
Q 653.5 539.75 653.35 539.75
L 652.9 539.75 652.9 539.45 653.05 539.45
Q 653.4 539.45 653.5 539.2
M 630.55 498.55
L 630.6 498.6 630.55 498.85 630.3 498.9 630.25 498.85 630.25 498.65 630.55 498.55
M 617.95 506.15
L 618.25 506.15 618.25 506.45 617.95 506.15
M 613.9 508.65
L 614.2 507.95 614.65 507.95
Q 614.8 508.05 614.8 508.25
L 614.8 508.5
Q 614.35 508.8 614.05 508.8
L 613.75 508.9 613.6 509.1 613.3 509.1 613.75 508.9 613.9 508.65
M 613.15 509.1
Q 613.15 509.4 613 509.4
L 612.55 509.4
Q 612.85 509.1 613.15 509.1
M 614.35 512.5
Q 614.35 512.2 614.2 512.5 613.9 512.6 613.9 512.5
L 613.9 512.2 614.35 512.2
Q 614.5 512.2 614.5 512.5 614.5 512.6 614.35 512.5
M 589.6 576.75
L 589.75 576.3 589.9 576.15 590.35 576.15
Q 590.5 576.3 590.2 576.45 590.2 576.75 590.05 576.75
L 589.6 576.75
M 596.8 581.3
L 596.95 581.6 596.35 581.6
Q 596.65 581.45 596.65 581.3
L 596.8 581.3
M 640 549.2
Q 639.6 548.8 639.4 548.7
L 639.1 548.3
Q 639.1 547.85 639.55 547.7 640 547.55 640.3 547.7 640.6 547.7 640.75 547.85 640.9 548 640.9 548.3 640.9 549.2 640 549.2
M 621.55 551.9
Q 621.4 552.6 621.1 552.65 620.8 552.9 620.35 552.35
L 620.05 552.65 620.05 552.85
Q 620.05 553.2 619.75 553.25
L 619.45 553.25 620.05 552.65 620.05 552.35
Q 620.6 552.35 620.8 552.25
L 621.4 551.9 621.25 551.8 621.6 551.65 621.6 551.8
Q 622 551.8 621.7 551.95
L 621.55 551.9
M 612.1 565.3
Q 611.8 565.15 611.8 565
L 612.1 564.7 612.1 565.3
M 614.8 566.95
Q 614.65 566.65 614.5 566.65
L 614.5 566.35
Q 614.8 566.05 614.95 566.05
L 615.1 565.9
Q 615.4 566.2 615.4 566.35
L 615.4 566.65
Q 615.2 566.65 615.1 566.75 615.1 566.95 614.8 566.95
M 625.3 558.4
L 625.6 557.95
Q 625.75 557.8 626.2 557.8 626.5 557.8 626.5 557.95 626.5 558.1 626.2 558.1 626.05 558.4 625.9 558.4
L 625.6 558.7 625.3 558.4
M 625.9 564.3
Q 625.70234375 564.10234375 625.6 564.1
L 625.9 564.1 625.9 563.8 626.2 564.1
Q 626.05 564.4 625.9 564.3
M 605.8 564.1
L 605.8 563.55 605.95 563.6 606.1 563.55 606.1 563.8
Q 605.95 564.1 606.1 564.1 606.25 564.35 605.8 564.1
M 642.1 546.55
Q 642.2927734375 546.3572265625 642.5 546.35 642.359375 546.359375 642.55 546.55 642.55 546.64375 642.75 546.65
L 642.1 546.65
Q 641.9 546.55 642.1 546.55
M 636.75 546.35
L 637.35 546.35
Q 637.0525390625 546.6474609375 637.15 546.65
L 636.75 546.65
Q 636.4 546.65 636.4 546.55 636.4 546.35 636.75 546.35
M 633.9 548.9
L 633.9 548.3 634 548.1 634.45 548
Q 634.75 548.1 634.9 548.3 635.05 548.3 634.75 548.6
L 634.3 548.7
Q 634.1 548.9 633.9 548.9
M 637.35 550.05
L 637.35 550.65 635.8 551.5
Q 635.05 551.8 634.2 551.8 634.45 552.1 634.3 552.25 634.2 552.35 634.2 552.1 633.7 551.95 633.9 551.8
L 634.2 551.8
Q 634.55 551 635.35 550.5
L 636.75 549.75 637.05 549.75
Q 637.35 549.75 637.35 550.05
M 632.05 550.05
L 632.05 550.65
Q 631.75 551.2 631.15 551.5 630.4 551.65 629.95 552.1
L 629.65 552.1 629.65 551.2
Q 629.8 550.65 630.4 550.2 631 549.9 631.75 549.75
L 632.05 550.05
M 631.45 553.55
L 632.05 553.55 632.35 553.7 632.35 554 631.75 554 631.75 553.85
Q 631.6 553.85 631.45 553.55
M 630.25 555.8
L 629.95 555.5 629.95 555.2 630.55 555.2 630.55 555.5 630.4 555.6
Q 630.4 555.8 630.25 555.8
M 608.95 560.65
L 609.7 560.65
Q 609.8 560.65 609.55 560.9
L 609.4 561.2
Q 609.1 561.35 608.65 561.2
L 608.65 560.9 608.95 560.65
M 612.55 568.35
Q 612.4 568.1 612.1 568.1
L 611.95 567.8 612.1 567.65 612.7 567.65
Q 613 567.65 613 567.8 613.15 567.95 613 567.95 612.85 568.25 612.7 568.25
L 612.55 568.35
M 620.65 558.4
L 620.65 557.8 620.8 557.5 621.25 557.5
Q 621.6 557.5 621.6 557.7
L 621.6 558.1
Q 621.4 558.4 621.1 558.4
L 620.65 558.4
M 609.25 570.45
L 609.15 570.45
Q 609.1 570.7 608.8 571
L 608.35 571.6 607.9 571.6
Q 607.9 571 608.2 570.7 608.55 570.45 609.15 570.45
L 609.25 570.3
Q 609.85 569.7 610.75 569.25 611.25 568.85 611.6 568.35 611.45 569.6 611.2 569.85 610.75 570.3 609.25 570.45
M 629.5 505
L 629.3 505.1 629.2 505.3 629.5 505 Z"/>
</g>
</g>
</g>

<g transform="matrix( 1, 0, 0, 1, -165.45,-455.55) ">
<g>
<g>
<path fill="#E3D9D9" stroke="none" d="
M 763.7 481.1
Q 762.9 481.1 762.5 481.5 762.05 481.95 762.5 483 761.35 483.5 760.7 484.55 760.1 485.45 761 486.8 761 487.3 760.55 487.5 760.15 487.7 759.8 487.7 759.95 488.55 759.5 489.4 758.9 490.3 758.15 491.05
L 758.15 490.75
Q 757.85 492.7 756.35 493.95 755 495.15 754.55 497.35 752.95 498.85 751.85 500.85
L 747.95 506.9
Q 747.4 508 746.3 508.8 745.25 509.1 743.9 509.1
L 741.35 509.4 740.45 509.4 740.45 509.85
Q 740.45 510 740.75 510 740.9 510.4 740.6 510.7 740.3 511.15 739.85 511.15
L 737.75 511.45 735.5 511.45
Q 731.75 511.45 727.85 511.3
L 713.45 511.45
Q 709.9 511.45 706.85 512 705.95 512.2 704.85 512
L 702.95 511.45
Q 702.05 511.3 701.9 511 701.75 510.85 702.05 510 702.35 508.8 702.8 507.75 703.1 506.6 703.85 505.7 705.85 502 707.9 497.65 710.1 493.3 711.8 489.3 713.7 484.9 715.55 481.1
L 719.45 473
Q 720.65 470.75 720.35 468.9 720.2 467 718.55 465.2 717.15 463.4 715.4 462.25 713.7 461.1 711.2 461.25 710.75 461.25 710.3 461.1
L 709.4 460.65 707.9 460.2
Q 707.35 460 706.25 459.8 704.9 459.35 704.45 460.65 703.7 463.5 702.5 466.4
L 697.7 477.25
Q 697.4 477.7 697.4 478.15 697.25 478.55 697.7 479 698.15 479.75 698 480.2 697.85 480.75 697.4 481.2 696.65 481.65 696.5 482.25 696.2 483 696.2 483.85
L 695.6 485.9
Q 695.2 486.7 694.4 487.5
L 694.25 487.6
Q 694 487.15 693.65 487.1 693.2 486.8 692.75 487.5
L 692.25 488.55
Q 691.9 489.3 691.85 489.9
L 692.15 489.9
Q 692.5 489.9 692.75 489.7
L 693.05 489.6
Q 693.5 489.9 693.5 490.15 693.35 490.6 693.05 490.75 692.9 491.25 692.55 491.65 692.15 492.05 692.15 492.65 690.9 496.3 689.1 499.55 687.3 502.9 686.15 506.45 685.8 506.95 685.55 507.15
L 684.65 508.8
Q 684.35 509.1 683.9 509.1 682.85 509.1 682.1 509.7 681.3 510.35 680.9 511.15 680.45 511.75 679.95 511.9 679.6 512 678.8 512 677.4 512 676.4 511.8 676.75 511.8 676.45 511.6
L 675.45 511.3 677.4 510.55
Q 677.75 510.4 677.75 510.3
L 678.2 510.3 677.75 510 677.4 510
Q 675.1 510 670.8 509.2 666.4 508.45 664.45 509.8 662.8 511 663.6 512
L 663.5 512.2
Q 662.75 513.65 662.75 515.15
L 662.75 519.95
Q 662.9 522.5 663.95 524.95 664.7 526.85 665.75 527.9 666.9 528.9 668.9 528.9 670.15 529.05 671.1 529.35 672.3 529.5 673.25 530.35 673.8 531 673.85 531.1 674 531.4 673.85 531.85 672.75 533.55 672.05 535.35
L 670.8 539.2
Q 667.8 545.25 665.6 550.05 663.15 555.25 660.95 561.05
L 660.35 561.95
Q 659.9 562.45 659.75 562.8 659.75 562.95 659.4 562.95 659.35 563.1 659.1 562.8
L 659.1 562.5
Q 659.3 562 659.4 561.35 659.75 560.8 659.75 560.15 659.55 560.35 659.4 560.35 659.1 560.35 659.1 560.45 658.5 561.2 658.2 561.8
L 657.5 563.1
Q 657.2 564.05 656.45 564.1 655.6 564.4 655.05 565
L 652.5 571
Q 651.4 574.65 650.75 577.2 650.25 579 651.65 580.85 653.2 582.85 655.25 584.4 657.25 585.7 660.05 586.3
L 661.95 586.6
Q 663.1 586.75 663.65 587.5 664.6 588.2 665.6 588.2
L 667.4 588.05
Q 667.85 587.9 668.25 587.5 668.55 587.2 668.55 586.6 668.45 584.5 669.35 582.75 670.3 580.9 670.8 578.95 671.45 576.4 672.5 574.1
L 674.45 569.15
Q 675.5 566.45 677.1 562.95 678.65 559.95 679.4 556.35
L 679.4 556.2 679.7 555.8
Q 681.05 554.3 681.65 552.55 682.25 550.8 683.1 549.2 684 547.7 684.8 545.75 685.7 544 686.15 542.1 686.65 540.75 687.2 539.6 688.05 538.05 688.55 536.95 689.1 536.2 689.6 535.2 690.15 534.3 690.5 533.2 691.1 531.25 692.55 530.25 694 529.2 696.05 529.2
L 728.6 529.75 729.35 530.05
Q 730.25 530.35 730.55 531.1 730.85 531.85 730.7 532.45
L 718.4 550.65 712.25 560.65
Q 711.8 561.35 711.2 561.65 710.6 561.95 709.7 561.8
L 708.8 563.1
Q 708.2 563.7 708.2 564.4
L 708.5 564.1
Q 708.8 564.95 708.8 565.6 708.8 566.3 708.2 567.05 707.75 567.5 707.3 567.05 707.3 566.75 707.15 566.45 707 566.1 706.7 566.45
L 705.8 568.1
Q 705.2 568.85 705.2 569.7 705.5 569.85 705.65 569.7 705.95 569.4 706.1 569.4 706.1 569.25 706.4 569.25
L 706.7 569.4
Q 706.85 570.15 706.4 570.9 705.8 571.6 704.85 571.8
L 704.6 571.8 704.6 572.8
Q 704.6 573.2 703.85 573.35
L 704.3 572.65 704.45 571.8
Q 704.45 571.2 704.6 570.6
L 705.05 569.7 703.85 571.2 702.95 573.1
Q 702.25 574.45 701.6 576.3 701.05 577.95 700.1 579.7 699.05 581.45 699.2 583.05 699.35 584.65 700.1 586.3 701.15 588.1 702.05 589.35 703.15 590.9 704.45 592 705.35 592.45 706.1 593.5 707 594.4 707.9 594.7 708.9 595.05 709.7 595.7
L 711.2 597
Q 712.5 598.15 713.3 598.15 714.1 598.15 715.55 597 716.1 596.6 716.6 596 716.9 595.4 716.75 594.7 715.85 593.05 716.15 591.55 716.3 589.9 717.05 588.65
L 717.95 587
Q 718.4 586.2 718.55 585.25 719 582.95 720.05 580.7 721.3 578.15 722.3 576.3
L 724.7 572.2
Q 726.05 570.15 726.5 567.65
L 727.1 566.05
Q 727.25 565.45 728.45 565
L 728.75 564.4
Q 728.9 564.35 728.75 563.8 728.6 563.1 729.05 562.65 729.55 562.15 729.95 561.95 729.8 560.9 730.55 560.45 731.45 559.9 731.75 559.55
L 732.05 559.55
Q 731.45 559.2 731.45 558.7 731.45 558.25 731.75 557.8 733.55 555.35 735.35 552.55 737.4 549.35 738.8 547.25
L 740.45 544.45
Q 740.9 543.85 741.05 543.15 741.35 542.4 740.75 541.5 740.75 541.25 741.05 541.1 741.35 540.95 741.65 540.95
L 742.25 541.1
Q 742.55 541.1 742.85 540.95 743.65 539.5 744.5 538.3 745.4 537.1 745.55 535.8 745.7 534.9 746 534.3
L 746.9 533
Q 748.05 532.1 749.15 531.55 750.5 531.1 752 531.25 753.2 531.4 753.95 530.65
L 755.75 529.2
Q 756.35 528.45 756.2 527.75
L 756.05 524.65 755.75 523.15
Q 755.3 522.3 755.45 521.55 755.6 520.9 756.05 520.1 756.6 519.55 756.8 519.2
L 759.65 516.15
Q 760.95 514.65 761.6 513.8 762.45 512.55 763.25 510.85 764.05 509.2 765.2 507.75 765.55 507.65 765.55 507.05 765.35 506.5 765.65 506
L 765.8 505.6 766.25 505.15
Q 768.6 503 770.15 500.55 772.1 497.7 773.6 495.9
L 776 491.65
Q 777.15 489.5 779.45 487.95 779.9 487.95 780.05 487.5
L 780.35 486.8
Q 780.95 485.9 781.4 484.85 781.95 483.55 782.45 482.55 783.6 481.25 784.4 479.75
L 786.35 475.95
Q 786.65 475.5 786.5 475.05
L 785.6 471.1
Q 785.15 469.1 783.35 467.55 782.05 466.4 780.05 465.05
L 776.3 462.45
Q 775.7 461.95 775.1 462.15 774.65 462.15 774.2 463.05 772.35 467.15 770 470.65 767.75 474.2 765.2 477.55 764.75 478.15 764.6 478.75 764.6 479.3 764.9 480.2 765.05 480.5 764.75 480.8 764.45 481.1 763.7 481.1
M 683.3 510.55
L 683.3 510.85
Q 683.3 511 683.1 511
L 683 510.85 683 510.55 683.3 510.55
M 674.45 564.1
L 674.75 564.1 674.45 564.4 674.45 564.1 Z"/>
</g>
</g>
</g>

<g transform="matrix( 1, 0, 0, 1, -165.45,-455.55) ">
<g>
<g>
<path fill="#E3D9D9" stroke="none" d="
M 816.8 476.25
Q 815.55 474.6 813.8 473 812.4 471.75 810.65 470.8 809.15 469.95 807.05 469.65 806 469.35 805.1 468.75 804.2 468.15 803 468.45 802.25 469.05 802.1 470.05 801.8 471 801.2 471.8
L 800.4 474.25
Q 800.8 474.65 800.6 474.9 800.6 475.2 800.3 475.35
L 800.3 475.05
Q 800.15 475.8 799.85 475.65 799.55 475.5 799.4 475.05
L 799.4 475.35
Q 798.95 475.35 798.8 475.8
L 798.8 477.55
Q 798.5 478 798.5 478.45 798.35 479 797.9 479.3
L 797.9 479 797 479.9 797.3 479.9
Q 796.2 482.55 795.05 484.45 793.5 487 792.35 488.55 791.55 489.6 790.55 490.45 789.65 491.35 788 491.35
L 787.4 492.25
Q 787.95 492.3 788.3 492.65 788.75 493.1 788.3 493.7 787.85 495.05 786.8 496 786.1 496.75 784.7 497.95 784.4 499 783.8 500
L 782.45 501.75
Q 780.4 504.7 779 506.45 777.2 508.8 776 511.45 775.2 512.2 774.2 513.35
L 772.4 515.45
Q 772.1 515.8 771.95 516.3 771.95 516.8 772.4 517.15
L 772.1 517.15
Q 772.25 517 772.1 516.85
L 770.75 518.05
Q 770.3 518.5 769.25 519.2 768.8 519.75 768.8 520.25 768.65 520.65 768.65 521.25
L 768.65 521.45
Q 768.1 521.45 767.9 521.55 767.6 521.7 767.45 522 765.75 523.85 764.45 525.8 763.05 527.95 762.2 530.05
L 761.6 530.05
Q 759.7 532.7 758.3 534.8
L 754.85 539.35
Q 753.75 540.8 752.75 542.7 751.65 544.55 750.5 545.95 750.2 546.25 749.6 546.65
L 748.4 547.25 748.7 547.25
Q 748.55 548 748.25 548.9 747.95 549.6 746.9 549.6 746.9 550.05 746.6 550.5
L 746.4 551.1 746.3 550.5 746.05 549.75
Q 744.85 550.65 744.05 551.95
L 730.25 576.05
Q 730.1 576.75 729.8 577.2 729.65 577.8 729.65 578.5 729.8 579.8 730.4 581 730.9 582.05 732.05 583.25 735.2 585.9 738.05 587.6 741.55 589.9 744.05 591.75 744.55 592.15 745.4 592.3
L 746.9 592.6
Q 747.5 592.6 747.95 592.3 748.4 592 748.7 591.45
L 749.45 590.1 749.9 588.65 753.2 582.75
Q 755 579.85 756.35 576.9
L 758.75 572.95
Q 759.8 570.7 760.1 568.55 760.55 568.25 760.7 567.95 760.85 567.5 760.7 567.05
L 760.7 566.2
Q 760.7 565.75 761 565.6 762.75 563.6 763.7 561.2 764.7 558.85 766.25 556.8 768 554.85 769.55 552.35
L 772.1 547.85
Q 772.85 546.65 773.75 545.75 774.65 544.9 775.1 543.6 775.55 542.35 776.3 541.4 777.05 540.35 778.25 539.6 778.7 539.45 778.85 539.05
L 779.45 538.15
Q 779.6 537.15 780.35 536.1 780.95 535.2 781.85 534.6 783.95 532 785.6 529.35 787.2 526.8 789.5 524.35 792.75 519.4 796.25 514.95 799.75 510.45 803 505.4
L 808.75 497.8
Q 811.25 494.35 814.1 489.7 815.35 487.9 816.35 486.05 817.75 483.75 818.45 481.95 818.75 481.5 818.75 481.1 818.9 480.6 818.75 480.2 818 478 816.8 476.25
M 768.05 523.15
Q 768.2 523 768.1 523.3
L 768.35 523.45 768.05 523.65
Q 767.85 523.45 768.05 523.45
L 768.05 523.15
M 800.3 474.2
L 800.3 474.5 800.4 474.25 800.3 474.2 Z"/>
</g>
</g>
</g>

<g transform="matrix( 1, 0, 0, 1, -165.45,-455.55) ">
<g>
<g>
<path fill="#E3D9D9" stroke="none" d="
M 896.15 469.45
Q 895.25 469.15 894.35 469.15
L 892.55 469.15
Q 885.65 468.8 878.75 469.15 877.4 469.15 876.35 469.35 875.6 469.35 873.8 469.15
L 870.5 469.15
Q 868.85 469.15 867.35 469.45
L 855.05 471.35
Q 849.6 472.3 842.75 473.7 841.1 473.95 839.45 474.3
L 836 475.2 834.2 475.05
Q 833.3 475.05 832.4 474.6 829.35 473.3 826.2 473.3 823.2 473.3 820.1 474 819.15 474.25 818.9 474.75 818.75 475.2 818.9 476.05 819.25 476.55 819.3 477.1 819.5 477.7 819.2 478.15 819.05 480.05 819.2 481.65
L 819.5 485.05
Q 819.8 486.95 819.8 488.8 819.8 490.8 818.9 492.65
L 818.75 493.7
Q 818.75 494.25 818.9 494.7 818.9 498.4 818 501.9 816.95 506.25 816.45 509.1 816.1 511.75 815.3 514.35 814.6 517.4 813.9 519.7 813.55 522 812.9 524.35
L 811.55 529.2
Q 811.4 530.05 810.75 530.65 810.4 531.25 809.75 531.55 808.8 532.35 807.9 532.9 807.2 533.45 806.3 533.75 804.3 534.65 803.6 535.8 803 537.15 803.3 539.2
L 803.75 540.5
Q 803.85 540.9 803.85 541.8 803.85 543.5 804.45 544.6 805.15 546.15 805.4 547.25 806.45 548.6 806.45 549.9 806.3 551.4 806 552.65 805.3 554.65 804.65 556.95 804.05 559.75 803.85 561.35 803.5 563.5 802.85 566.2 802.05 569.25 801.8 571 800.75 575 799.85 579.1
L 799.25 584.8
Q 798.95 587.8 797.75 590.4 797.3 591.55 797.55 592.3 797.8 592.95 798.65 593.8 799.55 594.5 799.4 595.25 799.25 596.05 798.35 596.4
L 792.75 598.65
Q 791.75 599.05 791 600.25
L 791.3 600.25 789.6 600.5
Q 788.65 600.8 787.85 601.4 786.75 602.3 785.15 602.9 783.65 603.35 782 602.9
L 780.05 602.9
Q 779 603.05 778.7 601.4 778.7 601.3 778.25 601.3
L 777.5 601.4
Q 775.8 601.7 774.05 602.4
L 771 603.75
Q 769.6 604.45 768.65 604.75
L 766.4 605.95 765.5 605.85
Q 765.1 605.85 764.8 605.55 764.05 605.85 763.8 606.4 763.45 607.25 762.95 607.55 763.4 608.45 763.25 609.5 763.1 610.5 763.7 611.55 763.8 611.8 763.8 612.45 764 612.8 764 613.3 764.15 615.4 764.6 617.1 765.2 618.85 766.95 620.15
L 767.55 620.95
Q 767.85 621.55 767.85 621.95 768.65 623.4 769.8 624 770.9 624.6 772.55 624.45 773.5 624.45 774.15 624.3
L 775.55 624.15
Q 779.15 623.35 781.85 622.25
L 787.85 619.9
Q 789.85 619.15 791 618.6 792.55 617.8 793.7 616.5 794 616.45 794.15 616.2 794.45 615.9 794.6 615.9 796.25 616.1 797.3 615.2
L 799.55 613.6
Q 800.9 612.7 802.4 612.25 804.2 611.65 805.05 611.25
L 821.15 602.3
Q 824.1 600.75 825.9 599.5 828.2 598.05 831.8 596.25 835 594.8 837.8 593.2 839 592.45 840.05 591.55
L 850.7 585.7
Q 853.05 584.1 854.9 583.05 857.15 581.65 858.95 580.85 860.5 579.4 862.4 578.8 864.15 578.2 865.4 576.75 866.75 576.3 867.8 575.25 868.75 574.25 870.05 573.65 871.5 573.1 872.3 572.65 873.2 572.05 874.4 571.6
L 876.65 570.45
Q 877.85 570 878.3 568.85 878.9 567.65 879.95 567.35 881.25 566.85 882.05 566.2 884.75 563.6 887.45 561.95
L 898.25 554.3
Q 900.35 552.45 903.2 550.2 905.8 547.9 907.85 545.35 910.15 542.5 911.9 540.05 913.05 538.35 913.7 536.4 914.45 534.5 914.3 532.6 913.85 530.1 913.1 527.75 912.4 525.6 911 523.15 910.15 522.35 908.9 520.85
L 906.95 518.2
Q 906.15 517.1 905.3 516.3 904.35 515.45 902.9 515.15 901.25 514.65 899.15 514.25 897.2 513.95 895.1 513.95 893.45 513.8 891.65 513.95 889.85 514.25 888.05 513.95
L 875.45 515.7 873.35 516.6
Q 872.25 517.3 871.55 517.15 870.85 517.15 870.05 516.6
L 869.15 516.3
Q 869.45 516.3 869.6 516.15
L 869.75 516
Q 871.4 515.55 872.75 514.95 874.05 514.4 875.3 513.35 877.45 511.8 879.5 510.55 881.65 509.5 883.55 507.65 885.05 506.6 886.85 505.85 888.75 505.05 890.3 504 890.7 503.8 891.5 503.2 891.9 502.95 892.55 502.2 893.2 501.4 894.05 501.05 895.1 500.6 896.15 500.75 896.65 500.75 896.9 500.55
L 897.35 500.15
Q 902.45 496.95 906.65 492.95 908.45 491.3 908.9 489.4 909.35 487.7 908.75 485.45 908.3 482.25 906.95 479.3 905.65 476.6 903.5 474 901.75 471.4 900.5 470.65 899.15 470.05 896.15 469.45
M 818.9 593.05
Q 818.6 593.2 818.3 593.2
L 817.85 593.2
Q 817.7 593.2 817.7 592.9 817.35 592.75 817.55 592.6 817.7 592.3 818 592.3
L 818.75 592.3
Q 819.05 592.15 819.2 592.6 819.2 592.9 818.9 593.05
M 822.45 586.3
Q 822.45 586.1 822.35 586
L 822.2 586 822.35 585.7 822.75 585.7 822.75 585.85 823.05 586 822.75 586
Q 822.75 586.15 822.45 586.3
M 824.45 588.8
L 824.6 588.95 824.65 588.95
Q 824.3 589.05 821.75 590.85 821.75 591 821.6 591 821.6 590.85 821.45 590.85
L 821.45 590.7
Q 821.45 590.55 821.75 590.55 822.6 589.25 824.45 588.8
M 846.65 573.1
Q 846.8 573.1 846.8 572.8
L 847.1 572.8
Q 847.1 573.25 846.95 573.4 846.65 573.55 846.5 573.4 846.2 574.1 845.6 574.25 845.15 574.4 844.7 574.4 844.4 574.55 844.1 574.4
L 843.65 574.4
Q 843.5 573.65 843.8 573.5
L 844.5 573.4 846.5 573.4 846.65 573.1
M 843.65 578.1
Q 843.8 578.15 843.95 578.5 843.95 578.95 843.65 578.95
L 843.35 579.1 842.9 579.1
Q 842.45 578.95 842.45 578.5
L 842.9 578.4
Q 843.15 578.2 843.35 578.2 843.35 578.1 843.65 578.1
M 840.65 580.3
L 840.65 580.55 840.35 580.55 840.65 580.3
M 846.5 576.45
L 846.2 576.05 848.75 574.85
Q 849.95 574.4 851.15 573.65
L 851 573.65
Q 851.6 573.45 851.9 573.25 852.35 572.95 852.5 572.5
L 853.55 571.8
Q 854 571.3 854.75 571.3 855.05 571.3 854.45 572.05 853.85 572.8 852.8 573.4
L 852.05 573.4 851.15 573.65
Q 851.3 574.1 851.15 574.55 851 575 850.5 575.15 849.55 575.8 848.45 576.05 847.4 576.3 846.5 576.05
L 846.5 576.45
M 830.45 581.15
Q 830.75 581.3 830.75 581.15 830.9 581.15 830.75 580.85 831.05 580.85 831.2 581 831.5 581 831.5 581.15
L 831.35 581.45 831.2 581.6
Q 830.9 581.6 830.75 581.45
L 830.45 581.15
M 835.05 579.4
L 835.05 579.1 835.35 579.4 835.05 579.4
M 837.05 582.45
L 837.2 582.5 837.05 582.75 836.75 582.45
Q 836.75 582.4 837.05 582.45
M 860.3 569.15
Q 860.15 568.85 860.6 568.25 860.9 567.8 860.9 567.5 861.05 567.3 860.9 566.75
L 861.65 566.65 862.4 566.2 863.6 565.75
Q 864.2 565.45 864.95 565.9 865.1 565.9 865.1 566.05
L 865.25 566.2
Q 864.95 567.05 864.2 567.05
L 862.7 567.35
Q 862.25 567.5 861.8 567.35
L 860.9 566.75 861.2 567.5 861.2 568.25
Q 861.2 568.6 861.05 568.65 860.85 569 860.6 569.15 860.3 569.4 860.3 569.15
M 862.1 562.95
L 862.4 562.95 862.4 563.25 862.1 562.95
M 856.85 570.15
Q 856.85 569.7 857.15 569.55
L 857.9 569.15
Q 858.05 569.3 858.05 569.4 858.2 569.55 858.2 569.85
L 857.75 570.15
Q 857.45 570.15 857.3 570.45
L 857 570.3
Q 857 570.15 856.85 570.15
M 795.3 600.1
Q 795.5 599.95 795.5 599.8
L 795.8 599.8 795.8 600.1 795.5 600.4 795.5 600.25 795.2 600.1 795.3 600.1
M 793.7 599.5
L 794 599.2 794 599.5 793.7 599.5
M 794.3 601
L 794.15 601.1 794 601.3
Q 793.75 601.3 793.55 601.1
L 793.4 601 793.55 600.8
Q 793.65 600.7 794 600.7
L 794.3 601
M 793.7 605.25
L 793.7 604.95 794 604.95 793.7 605.25
M 791.3 606.85
Q 790.7 607.3 790.25 607.15
L 789.2 607.15
Q 789.6 606.85 790.1 606.7 790.55 606.55 791.3 606.55
L 791.3 606.85
M 891.05 483.7
L 891.05 484.45
Q 891.05 484.75 890.9 485.05 890.75 485.45 890.45 485.65 889.15 486.15 888.2 486.95
L 886.4 488.7
Q 885.25 489.7 884.3 490.3 883.25 491.05 881.9 491.35 881.5 491.35 881 491.75 880.75 492 880.25 492.25 878.3 493.45 875.45 495.45
L 867.35 500
Q 865.75 500.8 864.35 502.2 863.6 502.9 862.7 503.4 861.8 504 860.9 504
L 859.85 504.4
Q 859.55 504.7 859.1 504.85 857.55 505.45 856.5 506.45 855.55 507.65 853.85 507.95 852.6 508.3 851 509.1 849.6 509.8 848.15 510.85 846.95 511.6 845.6 512.2
L 842.9 513.65
Q 840.55 515.05 838.4 516.15 835.9 517.65 834.05 519.1
L 831.5 520.25
Q 831.2 520.25 830.9 519.95 830.6 519.8 830.6 519.7
L 830.6 517.6 830.9 515.7
Q 831.95 512.35 832.7 508.8 833.45 505.3 834.35 501.9
L 834.5 500
Q 834.8 498.9 835.25 497.95
L 835.55 496.6
Q 835.7 495.9 835.55 495 835.25 494.15 835.7 493.4 836.1 492.85 837.05 492.55
L 841.05 490.75
Q 842.2 490.3 843.35 490.15 844.55 489.8 845.3 489.3
L 845.9 488.8 852.95 487.7
Q 856.1 487.1 859.1 485.9 864.65 485.6 869.45 484.45 874.7 483.4 879.95 483.25 882.35 483.4 884.6 483.1 886.6 482.85 888.95 483
L 889.85 483.25 890.45 483.25
Q 890.9 483.4 891.05 483.7
M 857.75 534.6
Q 864.8 532.85 870.2 531.85
L 882.95 529.2 883.25 529.2
Q 887 529.35 890.6 528.75 894.35 528.25 898.1 528
L 899.3 528
Q 900.05 528 900.35 528.75 900.65 529.35 900.2 529.75 898.95 531.95 897.65 533.6 896.2 535.5 894.35 536.95 891.7 539.45 888.95 541.4 886.5 543.25 883.55 546.05
L 882.05 547.25
Q 881.3 548 880.85 549 880.85 549.45 880.4 549.75 880.1 550.05 879.65 550.2 877.65 550.75 876.05 551.65
L 872.9 553.55 872 554.45
Q 871.4 554.75 870.8 554.75 869.2 555.25 867.95 556.5 866.7 557.75 865.25 558.7 864.95 558.7 864.95 559 864.95 559.35 865.25 559.55 865.4 560.15 865.25 560.45 865.25 560.75 864.35 560.75 862.85 560.75 861.8 561.35
L 859.65 562.5
Q 859.2 562.85 858.95 563.25 858.65 563.75 858.2 563.8 856.25 564.35 854.6 565.6 853.05 566.75 850.85 567.95
L 847.35 570
Q 845.85 570.95 844.1 572.2
L 838.5 574.85
Q 838.05 575.15 836.3 576.15 835.1 576.9 834.65 578.2 834.5 578.65 834.05 578.95 833.6 579.25 833.3 579.1 832.4 579.25 831.65 579.7 830.9 580.3 830 580.3 828.7 580.5 827.6 581.15 826.65 581.7 825.6 582.75 824.8 583.8 823.35 583.95
L 820.7 584.25 819.6 584.55
Q 819.2 584.8 819.2 585.4 819.05 585.85 818.75 586
L 818 586
Q 817.35 586 817.05 585.55
L 816.75 584.55
Q 817 584.1 817.05 583.5
L 817.05 582.45 818.15 574.4
Q 818.9 570.6 819.5 566.75
L 820.1 564.7
Q 820.4 563.7 820.1 562.5 820.1 561.65 820.4 560.9 820.55 560.2 821.15 559.3 821.9 557.2 822.2 555.05
L 823.25 550.5
Q 823.25 550.05 822.95 549.6 822.8 549.15 822.95 548.7 822.95 546.95 824.15 545.75 825.55 544.6 827.15 544.15 830.55 543.4 834.2 541.7 837.75 540 841.55 539.2 844.9 538.3 849.5 536.85 853.7 535.5 857.75 534.6
M 826.55 587.6
Q 826.4 587.3 826.7 587.2 826.95 587 827.15 587 827.45 586.7 827.9 586.7 828.3 586.6 828.5 586.45 828.45 586.95 827.15 587 828.05 587.6 827.6 587.9 827.3 587.9 827 587.75
L 826.55 587.6
M 830.2 585.75
L 830 585.7
Q 830.65 585.3 831.5 584.55
L 833.3 583.95 833.75 583.95
Q 833.85 584.05 833.65 584.35 833.5 584.6 832.55 584.8 832.65 584.7 832.4 584.7 831.95 584.55 831.5 584.55 831.1 586 830.2 585.75
M 838.5 577.9
Q 838.25 578.05 838.1 577.9
L 837.5 577.65 837.8 577.35
Q 838.15 577.35 838.2 577.2 838.55 577.2 838.7 577.65
L 838.85 577.65 838.7 577.8
Q 838.7 577.9 838.5 577.9
M 797.15 604.2
Q 797 604.35 796.55 604.35 796.25 604.35 796.1 604.2
L 795.8 604.05
Q 795.9 603.75 796.4 603.75
L 797.45 603.3
Q 797.75 603.3 797.75 603.75
L 797.15 604.2 Z"/>
</g>
</g>
</g>
</g>
</svg>
