
<svg xmlns="http://www.w3.org/2000/svg" version="1.1" xmlns:xlink="http://www.w3.org/1999/xlink" preserveAspectRatio="none" x="0px" y="0px" width="5000px" height="5000px" viewBox="0 0 5000 5000">
<defs/>

<mask id="Mask_Mask_1">
<g transform="matrix( 3.9491424560546875, 0, 0, 3.9491424560546875, -7372.85,-7372.85) ">
<g>
<g>
<path fill="#FFFFFF" stroke="none" d="
M 2947.65 2947.65
Q 3133.05 2762.25 3133.05 2500 3133.05 2237.75 2947.65 2052.35 2762.25 1866.95 2500 1866.95 2237.75 1866.95 2052.35 2052.35 1866.95 2237.75 1866.95 2500 1866.95 2762.25 2052.35 2947.65 2237.75 3133.05 2500 3133.05 2762.25 3133.05 2947.65 2947.65 Z"/>
</g>
</g>
</g>
</mask>

<g id="CENTER_WHITE" mask="url(#Mask_Mask_1)">
<g id="_____1" transform="matrix( 1, 0, 0, 1, 2500,2297.2) ">
<g id="_____1" transform="matrix( 1, 0, 0, 1, 0,-282.55) ">
<g>
<g>
<g>
<path fill="#FFFFFF" stroke="none" d="
M -639.7 898
L -306.4 898 672.15 -898.05 337.9 -898.05 -639.7 898
M 606.15 -453.9
L 553.05 -191.35 1117.3 24.65 465.55 239.75 405.95 533.95 1414.3 186.7 1473.9 -106.6 606.15 -453.9
M -465.5 -160.6
L -405.9 -453.9 -1415.2 -106.6 -1473.85 186.7 -604.2 533.95 -553 270.45 -1117.25 55.4 -465.5 -160.6 Z"/>
</g>
</g>
</g>
</g>

<g id="_____1" transform="matrix( 1, 0, 0, 1, 0,1241.95) ">
<g>
<g>
<g>
<path fill="#FFFFFF" stroke="none" d="
M -333.3 -201.1
Q -373.5 -263.9 -448.3 -297.6 -523.1 -331.35 -625.2 -331.35
L -912.9 -331.35 -1044.95 330.9 -706.45 330.9
Q -585.45 330.9 -491.7 283.8 -397.95 236.25 -345.8 149.4 -293.15 62.15 -293.15 -52.85 -293.15 -138.3 -333.3 -201.1
M -645.95 -181.7
Q -565.6 -181.7 -524.05 -145.2 -482.5 -108.75 -482.5 -41.75 -482.5 22.4 -507.9 73.2 -533.3 123.55 -583.15 152.65 -632.55 181.3 -700.9 181.3
L -827.45 181.3 -755.85 -181.7 -645.95 -181.7
M 92.75 -68.1
Q 35.05 -83.35 7.8 -96.75 -19.95 -109.65 -19.95 -134.6 -19.95 -162.75 11.95 -180.8 43.35 -198.8 99.2 -198.8 148.65 -198.8 195.25 -185.85 241.9 -173.4 280.7 -148.45
L 349.05 -287.45
Q 304.7 -315.15 242.85 -329.95 181.4 -344.25 110.75 -344.25 14.25 -344.25 -57.8 -315.15 -129.4 -285.6 -168.15 -232.5 -206.95 -178.95 -206.95 -107.8 -206.95 -49.15 -176.5 -13.15 -145.55 22.4 -103.05 39.95 -60.55 57.5 3.6 74.6 60.4 89.85 87.65 102.75 114.45 116.15 114.45 139.7 114.45 167.4 84.45 182.65 54.9 198.35 0.85 198.35 -55.95 198.35 -112.75 181.75 -169.1 165.55 -219.45 133.25
L -293.3 273.15
Q -246.65 304.6 -173.25 324.45 -99.35 344.3 -17.15 344.3 78.45 344.3 150.95 314.75 223 285.65 262.25 232.05 301.5 178.5 301.5 108.75 301.5 51.95 271.45 16.85 241 -18.2 198.95 -35.3 156.95 -51.95 92.75 -68.1
M 1013.95 -76.4
Q 1044.9 -118.45 1044.9 -176.15 1044.9 -250.95 985.8 -291.15 926.7 -331.35 814.9 -331.35
L 480.1 -331.35 348.05 330.9 711.95 330.9
Q 847.25 330.9 931.3 277.35 1015.8 224.2 1015.8 120.8 1015.8 75.5 992.25 41.8 969.15 8.55 926.7 -10.35 982.55 -34.4 1013.95 -76.4
M 849.1 -143.85
Q 849.1 -106.9 823.25 -87.5 797.35 -68.1 747.05 -68.1
L 612.65 -68.1 638.5 -196 770.6 -196
Q 849.1 -196 849.1 -143.85
M 560 195.6
L 586.35 61.2 751.65 61.2
Q 787.7 61.2 808.45 75.05 829.25 88.9 829.25 117.1 829.25 155.9 801.05 175.75 772.45 195.6 722.55 195.6
L 560 195.6 Z"/>
</g>
</g>
</g>
</g>
</g>
</g>

<g id="VIGNETTE" mask="url(#Mask_Mask_1)"/>
</svg>
